<svg width="28" height="28" viewBox="0 0 28 28" fill="none" xmlns="http://www.w3.org/2000/svg">
<path d="M7 2.33331L3.5 6.99998V23.3333C3.5 23.9522 3.74583 24.5456 4.18342 24.9832C4.621 25.4208 5.21449 25.6666 5.83333 25.6666H22.1667C22.7855 25.6666 23.379 25.4208 23.8166 24.9832C24.2542 24.5456 24.5 23.9522 24.5 23.3333V6.99998L21 2.33331H7Z" stroke="#7D6C5C" stroke-width="2.33333" stroke-linecap="round" stroke-linejoin="round"/>
<path d="M3.5 7H24.5" stroke="#7D6C5C" stroke-width="2.33333" stroke-linecap="round" stroke-linejoin="round"/>
<path d="M18.6666 11.6666C18.6666 12.9043 18.1749 14.0913 17.2998 14.9665C16.4246 15.8416 15.2376 16.3333 13.9999 16.3333C12.7622 16.3333 11.5753 15.8416 10.7001 14.9665C9.82492 14.0913 9.33325 12.9043 9.33325 11.6666" stroke="#7D6C5C" stroke-width="2.33333" stroke-linecap="round" stroke-linejoin="round"/>
</svg>
