<svg width="28" height="28" viewBox="0 0 28 28" fill="none" xmlns="http://www.w3.org/2000/svg">
<path d="M2.33325 8.16665L7.47825 3.02165C7.69532 2.80328 7.95346 2.63004 8.23779 2.5119C8.52212 2.39377 8.82702 2.33307 9.13492 2.33331H18.8649C19.1728 2.33307 19.4777 2.39377 19.762 2.5119C20.0464 2.63004 20.3045 2.80328 20.5216 3.02165L25.6666 8.16665" stroke="#7D6C5C" stroke-width="2.33333" stroke-linecap="round" stroke-linejoin="round"/>
<path d="M4.66675 14V23.3333C4.66675 23.9522 4.91258 24.5457 5.35017 24.9832C5.78775 25.4208 6.38124 25.6667 7.00008 25.6667H21.0001C21.6189 25.6667 22.2124 25.4208 22.65 24.9832C23.0876 24.5457 23.3334 23.9522 23.3334 23.3333V14" stroke="#7D6C5C" stroke-width="2.33333" stroke-linecap="round" stroke-linejoin="round"/>
<path d="M17.5 25.6666V21C17.5 20.3811 17.2542 19.7876 16.8166 19.35C16.379 18.9125 15.7855 18.6666 15.1667 18.6666H12.8333C12.2145 18.6666 11.621 18.9125 11.1834 19.35C10.7458 19.7876 10.5 20.3811 10.5 21V25.6666" stroke="#7D6C5C" stroke-width="2.33333" stroke-linecap="round" stroke-linejoin="round"/>
<path d="M2.33325 8.16663H25.6666" stroke="#7D6C5C" stroke-width="2.33333" stroke-linecap="round" stroke-linejoin="round"/>
<path d="M25.6666 8.16663V11.6666C25.6666 12.2855 25.4208 12.879 24.9832 13.3165C24.5456 13.7541 23.9521 14 23.3333 14C22.6516 13.9624 22.0006 13.7045 21.4783 13.265C21.339 13.1644 21.1717 13.1102 20.9999 13.1102C20.8282 13.1102 20.6608 13.1644 20.5216 13.265C19.9992 13.7045 19.3482 13.9624 18.6666 14C17.9849 13.9624 17.3339 13.7045 16.8116 13.265C16.6724 13.1644 16.505 13.1102 16.3333 13.1102C16.1615 13.1102 15.9941 13.1644 15.8549 13.265C15.3326 13.7045 14.6816 13.9624 13.9999 14C13.3183 13.9624 12.6673 13.7045 12.1449 13.265C12.0057 13.1644 11.8383 13.1102 11.6666 13.1102C11.4948 13.1102 11.3275 13.1644 11.1883 13.265C10.6659 13.7045 10.0149 13.9624 9.33325 14C8.65161 13.9624 8.0006 13.7045 7.47825 13.265C7.33905 13.1644 7.17167 13.1102 6.99992 13.1102C6.82817 13.1102 6.66079 13.1644 6.52159 13.265C5.99923 13.7045 5.34823 13.9624 4.66659 14C4.04775 14 3.45425 13.7541 3.01667 13.3165C2.57908 12.879 2.33325 12.2855 2.33325 11.6666V8.16663" stroke="#7D6C5C" stroke-width="2.33333" stroke-linecap="round" stroke-linejoin="round"/>
</svg>
